<mxfile host="app.diagrams.net" modified="2023-10-25T05:37:06.218Z" agent="Mozilla/5.0 (Macintosh; Intel Mac OS X 10_15_7) AppleWebKit/537.36 (KHTML, like Gecko) Chrome/118.0.0.0 Safari/537.36" etag="-ZIS9_KQ5XLuZcbEAXPB" version="22.0.7" type="github">
  <diagram name="第 1 页" id="9yshM-GHMLMCWPPyYdGQ">
    <mxGraphModel dx="2998" dy="2329" grid="1" gridSize="10" guides="1" tooltips="1" connect="1" arrows="1" fold="1" page="1" pageScale="1" pageWidth="827" pageHeight="1169" math="0" shadow="0">
      <root>
        <mxCell id="0" />
        <mxCell id="1" parent="0" />
        <mxCell id="RtZZORmi-Q3a8iIObx9M-77" value="" style="rounded=0;whiteSpace=wrap;html=1;" vertex="1" parent="1">
          <mxGeometry x="-420" y="160" width="1990" height="960" as="geometry" />
        </mxCell>
        <mxCell id="RtZZORmi-Q3a8iIObx9M-3" value="" style="rounded=1;whiteSpace=wrap;html=1;" vertex="1" parent="1">
          <mxGeometry x="-240" y="180" width="1790" height="310" as="geometry" />
        </mxCell>
        <mxCell id="RtZZORmi-Q3a8iIObx9M-73" value="" style="rounded=0;whiteSpace=wrap;html=1;fillColor=none;dashed=1;" vertex="1" parent="1">
          <mxGeometry x="1100" y="780" width="385" height="260" as="geometry" />
        </mxCell>
        <mxCell id="RtZZORmi-Q3a8iIObx9M-70" value="" style="shape=hexagon;perimeter=hexagonPerimeter2;whiteSpace=wrap;html=1;fixedSize=1;fillColor=#cdeb8b;dashed=1;strokeColor=#36393d;" vertex="1" parent="1">
          <mxGeometry x="1260" y="340" width="210" height="110" as="geometry" />
        </mxCell>
        <mxCell id="RtZZORmi-Q3a8iIObx9M-52" value="" style="rounded=1;whiteSpace=wrap;html=1;dashed=1;fillColor=#b0e3e6;strokeColor=#0e8088;" vertex="1" parent="1">
          <mxGeometry x="-220" y="220" width="910" height="230" as="geometry" />
        </mxCell>
        <mxCell id="RtZZORmi-Q3a8iIObx9M-22" value="" style="rounded=0;whiteSpace=wrap;html=1;fillColor=none;dashed=1;" vertex="1" parent="1">
          <mxGeometry x="-400" y="645" width="1160" height="455" as="geometry" />
        </mxCell>
        <mxCell id="RtZZORmi-Q3a8iIObx9M-25" value="" style="shape=hexagon;perimeter=hexagonPerimeter2;whiteSpace=wrap;html=1;fixedSize=1;dashed=1;fillColor=#cdeb8b;strokeColor=#36393d;" vertex="1" parent="1">
          <mxGeometry x="-180" y="800" width="420" height="220" as="geometry" />
        </mxCell>
        <mxCell id="RtZZORmi-Q3a8iIObx9M-2" value="&lt;font style=&quot;font-size: 18px;&quot;&gt;客户端发送&lt;/font&gt;" style="text;strokeColor=none;align=center;fillColor=none;html=1;verticalAlign=middle;whiteSpace=wrap;rounded=0;" vertex="1" parent="1">
          <mxGeometry x="-390" y="650" width="120" height="30" as="geometry" />
        </mxCell>
        <mxCell id="RtZZORmi-Q3a8iIObx9M-21" style="edgeStyle=orthogonalEdgeStyle;rounded=0;orthogonalLoop=1;jettySize=auto;html=1;exitX=0.311;exitY=1.006;exitDx=0;exitDy=0;exitPerimeter=0;" edge="1" parent="1" source="RtZZORmi-Q3a8iIObx9M-52">
          <mxGeometry relative="1" as="geometry">
            <mxPoint x="62.80000000000018" y="770" as="targetPoint" />
          </mxGeometry>
        </mxCell>
        <mxCell id="RtZZORmi-Q3a8iIObx9M-23" value="&lt;font style=&quot;font-size: 18px;&quot;&gt;feedback&lt;/font&gt;" style="edgeLabel;html=1;align=center;verticalAlign=middle;resizable=0;points=[];" vertex="1" connectable="0" parent="RtZZORmi-Q3a8iIObx9M-21">
          <mxGeometry x="-0.2543" y="1" relative="1" as="geometry">
            <mxPoint as="offset" />
          </mxGeometry>
        </mxCell>
        <mxCell id="RtZZORmi-Q3a8iIObx9M-27" style="edgeStyle=orthogonalEdgeStyle;rounded=0;orthogonalLoop=1;jettySize=auto;html=1;entryX=0.5;entryY=0;entryDx=0;entryDy=0;exitX=0.5;exitY=1;exitDx=0;exitDy=0;" edge="1" parent="1" source="RtZZORmi-Q3a8iIObx9M-57" target="RtZZORmi-Q3a8iIObx9M-24">
          <mxGeometry relative="1" as="geometry">
            <mxPoint x="365" y="450" as="sourcePoint" />
          </mxGeometry>
        </mxCell>
        <mxCell id="RtZZORmi-Q3a8iIObx9M-4" value="&lt;font style=&quot;font-size: 18px;&quot;&gt;服务端&lt;/font&gt;" style="text;strokeColor=none;align=center;fillColor=none;html=1;verticalAlign=middle;whiteSpace=wrap;rounded=0;" vertex="1" parent="1">
          <mxGeometry x="335" y="-40" width="60" height="30" as="geometry" />
        </mxCell>
        <mxCell id="RtZZORmi-Q3a8iIObx9M-6" value="&lt;font style=&quot;font-size: 18px;&quot;&gt;客户端接收&lt;/font&gt;" style="text;strokeColor=none;align=center;fillColor=none;html=1;verticalAlign=middle;whiteSpace=wrap;rounded=0;" vertex="1" parent="1">
          <mxGeometry x="1100" y="780" width="120" height="30" as="geometry" />
        </mxCell>
        <mxCell id="RtZZORmi-Q3a8iIObx9M-19" style="edgeStyle=orthogonalEdgeStyle;rounded=0;orthogonalLoop=1;jettySize=auto;html=1;exitX=0;exitY=0.5;exitDx=0;exitDy=0;startArrow=classic;startFill=1;endArrow=none;endFill=0;" edge="1" parent="1" source="RtZZORmi-Q3a8iIObx9M-14">
          <mxGeometry relative="1" as="geometry">
            <mxPoint x="60" y="770" as="targetPoint" />
            <Array as="points">
              <mxPoint x="-35" y="770" />
            </Array>
          </mxGeometry>
        </mxCell>
        <mxCell id="RtZZORmi-Q3a8iIObx9M-14" value="" style="shape=dataStorage;whiteSpace=wrap;html=1;fixedSize=1;rotation=90;fillColor=#d5e8d4;strokeColor=#82b366;" vertex="1" parent="1">
          <mxGeometry x="-100" y="835" width="130" height="170" as="geometry" />
        </mxCell>
        <mxCell id="RtZZORmi-Q3a8iIObx9M-15" value="&lt;font style=&quot;font-size: 18px;&quot;&gt;趋势线&lt;/font&gt;" style="text;strokeColor=none;align=center;fillColor=none;html=1;verticalAlign=middle;whiteSpace=wrap;rounded=0;" vertex="1" parent="1">
          <mxGeometry x="-95" y="905" width="120" height="30" as="geometry" />
        </mxCell>
        <mxCell id="RtZZORmi-Q3a8iIObx9M-20" style="edgeStyle=orthogonalEdgeStyle;rounded=0;orthogonalLoop=1;jettySize=auto;html=1;exitX=0.5;exitY=0;exitDx=0;exitDy=0;endArrow=none;endFill=0;startArrow=classic;startFill=1;" edge="1" parent="1" source="RtZZORmi-Q3a8iIObx9M-17">
          <mxGeometry relative="1" as="geometry">
            <mxPoint x="60.40000000000009" y="770" as="targetPoint" />
            <Array as="points">
              <mxPoint x="150" y="770" />
            </Array>
          </mxGeometry>
        </mxCell>
        <mxCell id="RtZZORmi-Q3a8iIObx9M-17" value="&lt;font style=&quot;font-size: 18px;&quot;&gt;ack 模块&lt;/font&gt;" style="rhombus;whiteSpace=wrap;html=1;fillColor=#fff2cc;strokeColor=#d6b656;" vertex="1" parent="1">
          <mxGeometry x="100" y="860" width="100" height="120" as="geometry" />
        </mxCell>
        <mxCell id="RtZZORmi-Q3a8iIObx9M-24" value="&lt;font style=&quot;font-size: 18px;&quot;&gt;nack 队列&lt;/font&gt;" style="ellipse;whiteSpace=wrap;html=1;fillColor=#fff2cc;strokeColor=#d6b656;" vertex="1" parent="1">
          <mxGeometry x="305" y="880" width="120" height="80" as="geometry" />
        </mxCell>
        <mxCell id="RtZZORmi-Q3a8iIObx9M-26" value="&lt;span style=&quot;font-size: 18px;&quot;&gt;延迟带宽估计&lt;/span&gt;" style="text;strokeColor=none;align=center;fillColor=none;html=1;verticalAlign=middle;whiteSpace=wrap;rounded=0;" vertex="1" parent="1">
          <mxGeometry x="-150" y="800" width="120" height="30" as="geometry" />
        </mxCell>
        <mxCell id="RtZZORmi-Q3a8iIObx9M-29" value="&lt;font style=&quot;font-size: 18px;&quot;&gt;Pacer&lt;/font&gt;" style="shape=process;whiteSpace=wrap;html=1;backgroundOutline=1;fillColor=#ffff88;strokeColor=#36393d;" vertex="1" parent="1">
          <mxGeometry x="-220" y="610" width="120" height="60" as="geometry" />
        </mxCell>
        <mxCell id="RtZZORmi-Q3a8iIObx9M-30" style="edgeStyle=orthogonalEdgeStyle;rounded=0;orthogonalLoop=1;jettySize=auto;html=1;exitX=0.5;exitY=0;exitDx=0;exitDy=0;entryX=0.5;entryY=1;entryDx=0;entryDy=0;" edge="1" parent="1" source="RtZZORmi-Q3a8iIObx9M-29" target="RtZZORmi-Q3a8iIObx9M-55">
          <mxGeometry relative="1" as="geometry" />
        </mxCell>
        <mxCell id="RtZZORmi-Q3a8iIObx9M-31" value="&lt;font style=&quot;font-size: 18px;&quot;&gt;丢包带宽估计&lt;/font&gt;" style="shape=hexagon;perimeter=hexagonPerimeter2;whiteSpace=wrap;html=1;fixedSize=1;fillColor=#fff2cc;strokeColor=#d6b656;" vertex="1" parent="1">
          <mxGeometry x="524" y="880" width="140" height="80" as="geometry" />
        </mxCell>
        <mxCell id="RtZZORmi-Q3a8iIObx9M-32" value="" style="endArrow=classic;html=1;rounded=0;entryX=0.5;entryY=0;entryDx=0;entryDy=0;exitX=0.5;exitY=1;exitDx=0;exitDy=0;" edge="1" parent="1" source="RtZZORmi-Q3a8iIObx9M-60" target="RtZZORmi-Q3a8iIObx9M-31">
          <mxGeometry width="50" height="50" relative="1" as="geometry">
            <mxPoint x="1057" y="449" as="sourcePoint" />
            <mxPoint x="620" y="510" as="targetPoint" />
          </mxGeometry>
        </mxCell>
        <mxCell id="RtZZORmi-Q3a8iIObx9M-34" value="Nack数据占比调整至占比50%" style="shape=callout;whiteSpace=wrap;html=1;perimeter=calloutPerimeter;fillColor=#f5f5f5;fontColor=#333333;strokeColor=#666666;" vertex="1" parent="1">
          <mxGeometry x="-150" y="530" width="120" height="80" as="geometry" />
        </mxCell>
        <mxCell id="RtZZORmi-Q3a8iIObx9M-35" value="" style="shape=callout;whiteSpace=wrap;html=1;perimeter=calloutPerimeter;rotation=90;fillColor=#f5f5f5;fontColor=#333333;strokeColor=#666666;" vertex="1" parent="1">
          <mxGeometry x="190" y="880" width="120" height="100" as="geometry" />
        </mxCell>
        <mxCell id="RtZZORmi-Q3a8iIObx9M-36" value="" style="shape=callout;whiteSpace=wrap;html=1;perimeter=calloutPerimeter;rotation=-90;fillColor=#f5f5f5;fontColor=#333333;strokeColor=#666666;" vertex="1" parent="1">
          <mxGeometry x="-250" y="870" width="120" height="120" as="geometry" />
        </mxCell>
        <mxCell id="RtZZORmi-Q3a8iIObx9M-37" value="优化吞吐量计算，提高收敛速度" style="text;strokeColor=none;align=center;fillColor=none;html=1;verticalAlign=middle;whiteSpace=wrap;rounded=0;" vertex="1" parent="1">
          <mxGeometry x="240" y="915" width="60" height="30" as="geometry" />
        </mxCell>
        <mxCell id="RtZZORmi-Q3a8iIObx9M-39" value="调整带宽估计趋势线窗口，提高计算稳定性" style="text;strokeColor=none;align=center;fillColor=none;html=1;verticalAlign=middle;whiteSpace=wrap;rounded=0;" vertex="1" parent="1">
          <mxGeometry x="-240" y="915" width="60" height="30" as="geometry" />
        </mxCell>
        <mxCell id="RtZZORmi-Q3a8iIObx9M-40" value="" style="shape=callout;whiteSpace=wrap;html=1;perimeter=calloutPerimeter;rotation=90;fillColor=#f5f5f5;fontColor=#333333;strokeColor=#666666;" vertex="1" parent="1">
          <mxGeometry x="630" y="355" width="120" height="100" as="geometry" />
        </mxCell>
        <mxCell id="RtZZORmi-Q3a8iIObx9M-41" value="优化packetlost 和 fractionlost统计提高丢包估计准确度" style="text;strokeColor=none;align=center;fillColor=none;html=1;verticalAlign=middle;whiteSpace=wrap;rounded=0;" vertex="1" parent="1">
          <mxGeometry x="680" y="390" width="60" height="30" as="geometry" />
        </mxCell>
        <mxCell id="RtZZORmi-Q3a8iIObx9M-42" value="" style="shape=callout;whiteSpace=wrap;html=1;perimeter=calloutPerimeter;rotation=90;fillColor=#f5f5f5;fontColor=#333333;strokeColor=#666666;" vertex="1" parent="1">
          <mxGeometry x="404" y="310" width="120" height="100" as="geometry" />
        </mxCell>
        <mxCell id="RtZZORmi-Q3a8iIObx9M-43" value="优化Nack策略，提高抗丢包能力，重传40次，20ms" style="text;strokeColor=none;align=center;fillColor=none;html=1;verticalAlign=middle;whiteSpace=wrap;rounded=0;" vertex="1" parent="1">
          <mxGeometry x="449" y="345" width="60" height="30" as="geometry" />
        </mxCell>
        <mxCell id="RtZZORmi-Q3a8iIObx9M-46" style="edgeStyle=orthogonalEdgeStyle;rounded=0;orthogonalLoop=1;jettySize=auto;html=1;exitX=1;exitY=0.5;exitDx=0;exitDy=0;exitPerimeter=0;entryX=0.5;entryY=1;entryDx=0;entryDy=0;" edge="1" parent="1" source="RtZZORmi-Q3a8iIObx9M-44" target="RtZZORmi-Q3a8iIObx9M-29">
          <mxGeometry relative="1" as="geometry" />
        </mxCell>
        <mxCell id="RtZZORmi-Q3a8iIObx9M-44" value="" style="shape=or;whiteSpace=wrap;html=1;rotation=-90;fillColor=#e1d5e7;strokeColor=#9673a6;" vertex="1" parent="1">
          <mxGeometry x="-200" y="680" width="80" height="100" as="geometry" />
        </mxCell>
        <mxCell id="RtZZORmi-Q3a8iIObx9M-45" value="&lt;font style=&quot;font-size: 18px;&quot;&gt;Fec + Red&lt;/font&gt;" style="text;strokeColor=none;align=center;fillColor=none;html=1;verticalAlign=middle;whiteSpace=wrap;rounded=0;" vertex="1" parent="1">
          <mxGeometry x="-220" y="715" width="120" height="30" as="geometry" />
        </mxCell>
        <mxCell id="RtZZORmi-Q3a8iIObx9M-47" value="" style="shape=callout;whiteSpace=wrap;html=1;perimeter=calloutPerimeter;rotation=-90;fillColor=#f5f5f5;fontColor=#333333;strokeColor=#666666;" vertex="1" parent="1">
          <mxGeometry x="-330" y="710" width="120" height="120" as="geometry" />
        </mxCell>
        <mxCell id="RtZZORmi-Q3a8iIObx9M-48" value="增加前向纠错能力降低丢包场景下延迟" style="text;strokeColor=none;align=center;fillColor=none;html=1;verticalAlign=middle;whiteSpace=wrap;rounded=0;" vertex="1" parent="1">
          <mxGeometry x="-310" y="755" width="60" height="30" as="geometry" />
        </mxCell>
        <mxCell id="RtZZORmi-Q3a8iIObx9M-75" style="edgeStyle=orthogonalEdgeStyle;rounded=0;orthogonalLoop=1;jettySize=auto;html=1;exitX=0.5;exitY=1;exitDx=0;exitDy=0;" edge="1" parent="1" source="RtZZORmi-Q3a8iIObx9M-49" target="RtZZORmi-Q3a8iIObx9M-74">
          <mxGeometry relative="1" as="geometry" />
        </mxCell>
        <mxCell id="RtZZORmi-Q3a8iIObx9M-49" value="" style="ellipse;whiteSpace=wrap;html=1;fillColor=#cce5ff;strokeColor=#36393d;" vertex="1" parent="1">
          <mxGeometry x="810" y="310" width="430" height="350" as="geometry" />
        </mxCell>
        <mxCell id="RtZZORmi-Q3a8iIObx9M-50" value="&lt;span style=&quot;font-size: 18px;&quot;&gt;下行带宽估计&lt;/span&gt;" style="text;strokeColor=none;align=center;fillColor=none;html=1;verticalAlign=middle;whiteSpace=wrap;rounded=0;" vertex="1" parent="1">
          <mxGeometry x="1305" y="340" width="120" height="30" as="geometry" />
        </mxCell>
        <mxCell id="RtZZORmi-Q3a8iIObx9M-53" value="&lt;span style=&quot;font-size: 18px;&quot;&gt;上行逻辑&lt;/span&gt;" style="text;strokeColor=none;align=center;fillColor=none;html=1;verticalAlign=middle;whiteSpace=wrap;rounded=0;" vertex="1" parent="1">
          <mxGeometry x="-190" y="230" width="120" height="30" as="geometry" />
        </mxCell>
        <mxCell id="RtZZORmi-Q3a8iIObx9M-59" style="edgeStyle=orthogonalEdgeStyle;rounded=0;orthogonalLoop=1;jettySize=auto;html=1;exitX=1;exitY=0.5;exitDx=0;exitDy=0;entryX=0;entryY=0.5;entryDx=0;entryDy=0;" edge="1" parent="1" source="RtZZORmi-Q3a8iIObx9M-55" target="RtZZORmi-Q3a8iIObx9M-57">
          <mxGeometry relative="1" as="geometry" />
        </mxCell>
        <mxCell id="RtZZORmi-Q3a8iIObx9M-55" value="&lt;font style=&quot;font-size: 18px;&quot;&gt;Fec + Red解包&lt;/font&gt;" style="ellipse;whiteSpace=wrap;html=1;aspect=fixed;fillColor=#e1d5e7;strokeColor=#9673a6;" vertex="1" parent="1">
          <mxGeometry x="-210" y="320" width="100" height="100" as="geometry" />
        </mxCell>
        <mxCell id="RtZZORmi-Q3a8iIObx9M-57" value="&lt;font style=&quot;font-size: 18px;&quot;&gt;Nack逻辑&lt;/font&gt;" style="shape=parallelogram;perimeter=parallelogramPerimeter;whiteSpace=wrap;html=1;fixedSize=1;fillColor=#fff2cc;strokeColor=#d6b656;" vertex="1" parent="1">
          <mxGeometry x="305" y="340" width="120" height="60" as="geometry" />
        </mxCell>
        <mxCell id="RtZZORmi-Q3a8iIObx9M-58" value="" style="shape=callout;whiteSpace=wrap;html=1;perimeter=calloutPerimeter;rotation=0;fillColor=#f5f5f5;fontColor=#333333;strokeColor=#666666;" vertex="1" parent="1">
          <mxGeometry x="60" y="270" width="120" height="100" as="geometry" />
        </mxCell>
        <mxCell id="RtZZORmi-Q3a8iIObx9M-60" value="&lt;font style=&quot;font-size: 18px;&quot;&gt;RR统计&lt;/font&gt;" style="shape=hexagon;perimeter=hexagonPerimeter2;whiteSpace=wrap;html=1;fixedSize=1;fillColor=#fff2cc;strokeColor=#d6b656;" vertex="1" parent="1">
          <mxGeometry x="534" y="330" width="120" height="80" as="geometry" />
        </mxCell>
        <mxCell id="RtZZORmi-Q3a8iIObx9M-61" value="优化解包后进入Nack顺序" style="text;strokeColor=none;align=center;fillColor=none;html=1;verticalAlign=middle;whiteSpace=wrap;rounded=0;" vertex="1" parent="1">
          <mxGeometry x="90" y="290" width="60" height="30" as="geometry" />
        </mxCell>
        <mxCell id="RtZZORmi-Q3a8iIObx9M-63" value="&lt;span style=&quot;font-size: 18px;&quot;&gt;Pacer&lt;/span&gt;" style="text;strokeColor=none;align=center;fillColor=none;html=1;verticalAlign=middle;whiteSpace=wrap;rounded=0;" vertex="1" parent="1">
          <mxGeometry x="965" y="325" width="120" height="30" as="geometry" />
        </mxCell>
        <mxCell id="RtZZORmi-Q3a8iIObx9M-64" value="新增下行pacer逻辑，进行码率控制" style="shape=callout;whiteSpace=wrap;html=1;perimeter=calloutPerimeter;rotation=0;fillColor=#f5f5f5;fontColor=#333333;strokeColor=#666666;" vertex="1" parent="1">
          <mxGeometry x="965" y="210" width="120" height="100" as="geometry" />
        </mxCell>
        <mxCell id="RtZZORmi-Q3a8iIObx9M-67" value="" style="shape=trapezoid;perimeter=trapezoidPerimeter;whiteSpace=wrap;html=1;fixedSize=1;fillColor=#fff2cc;strokeColor=#d6b656;" vertex="1" parent="1">
          <mxGeometry x="1050" y="440" width="140" height="120" as="geometry" />
        </mxCell>
        <mxCell id="RtZZORmi-Q3a8iIObx9M-68" value="&lt;span style=&quot;font-size: 18px;&quot;&gt;Simulcast&lt;/span&gt;" style="text;strokeColor=none;align=center;fillColor=none;html=1;verticalAlign=middle;whiteSpace=wrap;rounded=0;" vertex="1" parent="1">
          <mxGeometry x="1060" y="440" width="120" height="30" as="geometry" />
        </mxCell>
        <mxCell id="RtZZORmi-Q3a8iIObx9M-69" value="增加默认大流控制，拉其中任何一条流都持续等待2s建联不去切流" style="shape=callout;whiteSpace=wrap;html=1;perimeter=calloutPerimeter;rotation=0;fillColor=#f5f5f5;fontColor=#333333;strokeColor=#666666;" vertex="1" parent="1">
          <mxGeometry x="1110" y="350" width="120" height="100" as="geometry" />
        </mxCell>
        <mxCell id="RtZZORmi-Q3a8iIObx9M-71" value="去除丢包逻辑，仅使用延迟估计" style="shape=callout;whiteSpace=wrap;html=1;perimeter=calloutPerimeter;rotation=0;fillColor=#f8cecc;strokeColor=#b85450;" vertex="1" parent="1">
          <mxGeometry x="1390" y="240" width="120" height="100" as="geometry" />
        </mxCell>
        <mxCell id="RtZZORmi-Q3a8iIObx9M-72" value="针对大象老鼠流竞争问题优化公平性" style="shape=callout;whiteSpace=wrap;html=1;perimeter=calloutPerimeter;rotation=0;fillColor=#f5f5f5;fontColor=#333333;strokeColor=#666666;" vertex="1" parent="1">
          <mxGeometry x="1240" y="240" width="120" height="100" as="geometry" />
        </mxCell>
        <mxCell id="RtZZORmi-Q3a8iIObx9M-74" value="&lt;font style=&quot;font-size: 18px;&quot;&gt;jitter&lt;/font&gt;" style="rhombus;whiteSpace=wrap;html=1;fillColor=#f9f7ed;strokeColor=#36393d;" vertex="1" parent="1">
          <mxGeometry x="1253" y="790" width="147" height="130" as="geometry" />
        </mxCell>
        <mxCell id="RtZZORmi-Q3a8iIObx9M-76" value="乱序渲染平滑" style="shape=callout;whiteSpace=wrap;html=1;perimeter=calloutPerimeter;rotation=0;fillColor=#f8cecc;strokeColor=#b85450;" vertex="1" parent="1">
          <mxGeometry x="1340" y="735" width="120" height="100" as="geometry" />
        </mxCell>
        <mxCell id="RtZZORmi-Q3a8iIObx9M-78" value="&lt;font style=&quot;font-size: 18px;&quot;&gt;服务端&lt;/font&gt;" style="text;strokeColor=none;align=center;fillColor=none;html=1;verticalAlign=middle;whiteSpace=wrap;rounded=0;" vertex="1" parent="1">
          <mxGeometry x="720" y="180" width="120" height="30" as="geometry" />
        </mxCell>
      </root>
    </mxGraphModel>
  </diagram>
</mxfile>
